<svg width="512" height="512" viewBox="0 0 512 512" xmlns="http://www.w3.org/2000/svg">
  <defs>
    <!-- Main Applaa gradient -->
    <linearGradient id="applaaGradient" x1="0%" y1="0%" x2="100%" y2="100%">
      <stop offset="0%" style="stop-color:#ff6b35;stop-opacity:1" />
      <stop offset="25%" style="stop-color:#ff8c42;stop-opacity:1" />
      <stop offset="50%" style="stop-color:#ffc107;stop-opacity:1" />
      <stop offset="75%" style="stop-color:#7cb342;stop-opacity:1" />
      <stop offset="100%" style="stop-color:#4caf50;stop-opacity:1" />
    </linearGradient>
    
    <!-- Background gradient -->
    <radialGradient id="backgroundGradient" cx="50%" cy="50%" r="50%">
      <stop offset="0%" style="stop-color:#ffffff;stop-opacity:1" />
      <stop offset="100%" style="stop-color:#f8f9fa;stop-opacity:1" />
    </radialGradient>
    
    <!-- Shadow filter -->
    <filter id="dropShadow" x="-20%" y="-20%" width="140%" height="140%">
      <feDropShadow dx="0" dy="4" stdDeviation="8" flood-color="#000000" flood-opacity="0.1"/>
    </filter>
  </defs>
  
  <!-- Background circle -->
  <circle cx="256" cy="256" r="240" fill="url(#backgroundGradient)" filter="url(#dropShadow)"/>
  
  <!-- Modern "A" - Triangle with rounded corners and modern styling -->
  <g>
    <!-- A - Main triangle shape -->
    <path d="M 160 360 L 220 160 Q 225 150 235 150 Q 245 150 250 160 L 310 360 Q 315 370 305 370 L 280 370 Q 275 370 273 365 L 265 340 L 205 340 L 197 365 Q 195 370 190 370 L 165 370 Q 155 370 160 360 Z" 
          fill="url(#applaaGradient)"/>
    
    <!-- A - Cross bar with rounded ends -->
    <rect x="215" y="280" width="40" height="16" rx="8" ry="8" fill="url(#backgroundGradient)"/>
  </g>
  
  <!-- Modern "L" - Clean geometric shape -->
  <g>
    <!-- L - Vertical part with rounded top -->
    <rect x="340" y="160" width="24" height="180" rx="12" ry="12" fill="url(#applaaGradient)"/>
    
    <!-- L - Horizontal part with rounded right end -->
    <rect x="340" y="340" width="60" height="24" rx="12" ry="12" fill="url(#applaaGradient)"/>
  </g>
  
  <!-- Subtle accent elements -->
  <circle cx="200" cy="120" r="6" fill="url(#applaaGradient)" opacity="0.4"/>
  <circle cx="380" cy="120" r="4" fill="url(#applaaGradient)" opacity="0.3"/>
  
  <!-- Connecting element - subtle arc -->
  <path d="M 310 300 Q 325 290 340 300" 
        stroke="url(#applaaGradient)" 
        stroke-width="2" 
        fill="none" 
        opacity="0.2" 
        stroke-linecap="round"/>
</svg>