<svg width="512" height="512" viewBox="0 0 512 512" xmlns="http://www.w3.org/2000/svg">
  <defs>
    <!-- Main Applaa gradient -->
    <linearGradient id="applaaGradient" x1="0%" y1="0%" x2="100%" y2="100%">
      <stop offset="0%" style="stop-color:#ff6b35;stop-opacity:1" />
      <stop offset="25%" style="stop-color:#ff8c42;stop-opacity:1" />
      <stop offset="50%" style="stop-color:#ffc107;stop-opacity:1" />
      <stop offset="75%" style="stop-color:#7cb342;stop-opacity:1" />
      <stop offset="100%" style="stop-color:#4caf50;stop-opacity:1" />
    </linearGradient>
    
    <!-- Background gradient -->
    <radialGradient id="backgroundGradient" cx="50%" cy="50%" r="50%">
      <stop offset="0%" style="stop-color:#ffffff;stop-opacity:1" />
      <stop offset="100%" style="stop-color:#f8f9fa;stop-opacity:1" />
    </radialGradient>
    
    <!-- Shadow filter -->
    <filter id="dropShadow" x="-20%" y="-20%" width="140%" height="140%">
      <feDropShadow dx="0" dy="8" stdDeviation="16" flood-color="#000000" flood-opacity="0.15"/>
    </filter>
    
    <!-- Inner shadow for the letter -->
    <filter id="letterShadow" x="-50%" y="-50%" width="200%" height="200%">
      <feDropShadow dx="0" dy="4" stdDeviation="6" flood-color="#000000" flood-opacity="0.2"/>
    </filter>
  </defs>
  
  <!-- Background circle -->
  <circle cx="256" cy="256" r="240" fill="url(#backgroundGradient)" filter="url(#dropShadow)"/>
  
  <!-- Single letter "A" - Bold and centered -->
  <g filter="url(#letterShadow)">
    <path d="M 180 400 L 230 160 Q 240 140 256 140 Q 272 140 282 160 L 332 400 Q 340 420 325 420 L 295 420 Q 285 420 282 410 L 270 370 L 242 370 L 230 410 Q 227 420 217 420 L 187 420 Q 172 420 180 400 Z" 
          fill="url(#applaaGradient)"/>
    
    <!-- A - Cross bar with rounded ends -->
    <rect x="250" y="290" width="12" height="20" rx="6" ry="6" fill="url(#backgroundGradient)"/>
  </g>
  
  <!-- Subtle highlight on top for depth -->
  <ellipse cx="256" cy="180" rx="60" ry="15" fill="#ffffff" opacity="0.15"/>
</svg>